Coordinates
version=1
nRows=13
nColumns=40
inDegrees=yes

Units are S.I. units (second, meters, Newtons, ...)
Angles are in degrees.

endheader
time	pelvis_tilt	pelvis_list	pelvis_rotation	pelvis_tx	pelvis_ty	pelvis_tz	hip_flexion_r	hip_adduction_r	hip_rotation_r	knee_angle_r	knee_angle_r_beta	ankle_angle_r	subtalar_angle_r	mtp_angle_r	hip_flexion_l	hip_adduction_l	hip_rotation_l	knee_angle_l	knee_angle_l_beta	ankle_angle_l	subtalar_angle_l	mtp_angle_l	lumbar_extension	lumbar_bending	lumbar_rotation	arm_flex_r	arm_add_r	arm_rot_r	elbow_flex_r	pro_sup_r	wrist_flex_r	wrist_dev_r	arm_flex_l	arm_add_l	arm_rot_l	elbow_flex_l	pro_sup_l	wrist_flex_l	wrist_dev_l
      0.94500000	     -2.76768295	     -1.54379491	     -1.62335169	      0.97894880	      0.92105268	      0.41706431	     29.06311115	     -5.01218261	    -17.88911857	     11.03371506	     11.03371506	      3.59421549	      5.68844338	     14.08126884	     -2.70249042	      0.19183440	    -14.88017551	     11.10598783	     11.10598783	     18.12222529	     -0.76200622	     -8.64596773	    -10.70906674	      2.28741766	     -0.70316719	    -20.85876821	    -12.87240642	    -16.64565070	     20.54776408	     47.73329545	      0.00000000	      0.00000000	     28.65099236	    -20.73877697	     -0.96230321	     73.59446018	     47.08671535	      0.00000000	      0.00000000
      0.95650000	     -2.76000671	     -1.53384686	     -1.52829673	      0.97995353	      0.91944736	      0.41792774	     28.84805700	     -4.65431490	    -18.09764989	     11.16576932	     11.16576932	      3.49502288	      6.04820783	     13.78018195	     -3.36914699	      0.11613128	    -14.78606032	     11.25489616	     11.25489616	     18.70368635	     -0.58502570	     -8.45804243	    -10.54838015	      2.25378607	     -0.59690388	    -21.66557843	    -12.91372579	    -16.95754110	     20.61984204	     47.74451458	      0.00000000	      0.00000000	     28.62447672	    -20.68982897	     -1.15316593	     74.93098360	     47.13604054	      0.00000000	      0.00000000
      0.96800000	     -2.86833798	     -1.53838643	     -1.39129884	      0.98098303	      0.91790438	      0.41889140	     28.64602663	     -4.28244465	    -17.99758459	     11.46334357	     11.46334357	      3.31577819	      6.08464482	     13.69458945	     -3.91030255	      0.01291792	    -14.59338558	     11.36702909	     11.36702909	     19.08926935	     -0.56080957	     -8.53924627	    -10.18784152	      2.22768488	     -0.73039155	    -22.11515948	    -12.99393314	    -17.01725276	     20.50583327	     47.75023082	      0.00000000	      0.00000000	     28.68445038	    -20.79706997	     -1.23719558	     75.12442054	     47.14714149	      0.00000000	      0.00000000
      0.97950000	     -2.83175280	     -1.74115452	     -1.17038606	      0.98222907	      0.91658933	      0.42001606	     28.41294098	     -3.83169871	    -17.84232387	     12.39959939	     12.39959939	      3.16219612	      5.81469269	     13.12554593	     -4.53761428	     -0.36909422	    -14.36284645	     11.66200225	     11.66200225	     19.50723477	     -0.48865675	     -8.47241723	    -10.05111068	      2.46302486	     -0.66218319	    -22.66019345	    -13.07229641	    -17.12120764	     20.42541986	     47.75638793	      0.00000000	      0.00000000	     28.51587341	    -20.77073105	     -1.36928049	     75.69925693	     47.16884633	      0.00000000	      0.00000000
      0.99100000	     -2.88390801	     -1.70134416	     -0.98615992	      0.98366235	      0.91496882	      0.42141097	     28.13603110	     -3.49222779	    -17.01510406	     13.03759875	     13.03759875	      0.68288005	      4.64863822	      5.87386792	     -4.73480017	     -0.74228582	    -15.11332009	     12.83391378	     12.83391378	     21.40692875	      1.34239041	     -5.95172916	     -9.87416064	      2.34682357	     -1.29115270	    -22.67907928	    -13.10900756	    -18.07365599	     21.25434801	     47.75741981	      0.00000000	      0.00000000	     27.07864355	    -21.03091700	     -2.88040640	     78.74394316	     47.39224732	      0.00000000	      0.00000000
      1.00250000	     -2.98536574	     -1.82012211	     -0.73628805	      0.98506244	      0.91367912	      0.42280253	     28.08176099	     -3.14610353	    -16.29239853	     14.28626645	     14.28626645	      0.28175038	      3.73992008	      4.76106978	     -5.11135665	     -1.12093233	    -14.97411219	     13.33487518	     13.33487518	     21.83597941	      1.54842515	     -5.85028006	     -9.56954653	      2.44071406	     -1.22241241	    -22.76645738	    -13.01741218	    -18.14307620	     21.13018188	     47.75601802	      0.00000000	      0.00000000	     26.77615388	    -20.84504397	     -2.92837217	     79.14724389	     47.41810545	      0.00000000	      0.00000000
      1.01400000	     -2.94825379	     -2.06386647	     -0.44515073	      0.98664349	      0.91301038	      0.42425641	     27.67553644	     -2.73635681	    -15.99778195	     15.25276320	     15.25276320	      0.04920628	      3.55566934	      4.47757557	     -5.73970561	     -1.60717515	    -14.72198271	     13.61905104	     13.61905104	     22.01568020	      1.58007770	     -5.86441369	     -9.42584965	      2.69780986	     -1.20850641	    -22.63846936	    -12.87849129	    -18.13658450	     21.16060287	     47.75316138	      0.00000000	      0.00000000	     26.34397980	    -20.61178793	     -2.86159392	     79.13438061	     47.41285280	      0.00000000	      0.00000000
      1.02550000	     -3.06449674	     -2.09873199	     -0.15146542	      0.98803187	      0.91193544	      0.42588293	     27.92922766	     -2.58007655	    -14.99670903	     17.04110010	     17.04110010	     -0.16691362	      2.02001155	      3.06826233	     -5.86197491	     -2.03778160	    -14.77897368	     14.57504201	     14.57504201	     22.42712355	      2.02539859	     -5.72494718	     -9.18436542	      2.66138538	     -1.26472631	    -22.37084587	    -12.83938373	    -18.18748254	     21.22246034	     47.75015801	      0.00000000	      0.00000000	     25.79420561	    -20.50321108	     -3.18534771	     79.59675621	     47.44926428	      0.00000000	      0.00000000
      1.03700000	     -3.05131313	     -2.36325676	      0.16306884	      0.98964927	      0.91153277	      0.42764075	     27.70116366	     -2.17480025	    -14.36028912	     18.19737221	     18.19737221	     -0.24950751	      1.02896051	      2.02515590	     -6.16436825	     -2.71732809	    -14.73012680	     15.45714399	     15.45714399	     22.74344713	      2.36136975	     -5.61091385	     -9.07820674	      2.90426047	     -1.35310470	    -21.86637658	    -12.78309270	    -18.20056799	     21.32892896	     47.74530340	      0.00000000	      0.00000000	     25.04890368	    -20.31882317	     -3.43130886	     79.74879408	     47.47163160	      0.00000000	      0.00000000
      1.04850000	     -3.03777932	     -2.56909633	      0.47509615	      0.99131881	      0.91178730	      0.42941210	     27.24199755	     -1.87631695	    -14.11923846	     18.90345691	     18.90345691	      0.00553053	      0.77753748	      1.67114551	     -6.60888009	     -3.26003388	    -14.49732140	     15.97048046	     15.97048046	     22.57424735	      2.39859508	     -5.56485256	     -8.99709999	      3.07340630	     -1.17175937	    -21.23573323	    -12.50603675	    -18.15247111	     21.52514774	     47.73578770	      0.00000000	      0.00000000	     24.25247865	    -19.87112065	     -3.29139961	     79.57164633	     47.45564889	      0.00000000	      0.00000000
      1.06000000	     -3.10592065	     -2.93803074	      0.80690366	      0.99263341	      0.91163543	      0.43158893	     27.18562012	     -1.29885946	    -13.13789682	     19.98805424	     19.98805424	     -0.29309732	     -1.52812807	     -0.19701993	     -6.20674893	     -4.38946579	    -14.98125701	     18.04831951	     18.04831951	     23.05921722	      3.35275676	     -5.68836764	     -8.84668960	      3.41065108	     -1.78857981	    -20.01587738	    -12.64514201	    -18.08727493	     21.38748998	     47.72828403	      0.00000000	      0.00000000	     22.90439984	    -19.77105329	     -4.67068988	     79.92028559	     47.56841974	      0.00000000	      0.00000000
      1.07150000	     -3.01063916	     -3.15804627	      1.11625071	      0.99402937	      0.91231764	      0.43352676	     26.81945592	     -1.07797190	    -13.04267748	     20.93646145	     20.93646145	      0.33876723	     -1.95890508	     -0.72403964	     -6.21112239	     -5.09371927	    -14.61623176	     19.50207447	     19.50207447	     22.76120774	      2.93087451	     -5.91694956	     -8.95366888	      3.61683891	     -1.66480481	    -19.07607428	    -12.51560347	    -18.01442163	     21.62633913	     47.71588525	      0.00000000	      0.00000000	     22.05427112	    -19.38841895	     -4.62284836	     79.51652098	     47.55663421	      0.00000000	      0.00000000
      1.08300000	     -3.13922794	     -3.44648324	      1.44447071	      0.99505714	      0.91291831	      0.43575762	     26.60732108	     -0.73560823	    -12.92099487	     21.62016446	     21.62016446	      0.94581393	     -2.67923574	     -1.09854741	     -5.52672463	     -6.01967517	    -14.17909521	     21.71458627	     21.71458627	     22.23049216	      2.31032175	     -6.65195730	     -8.81234337	      3.79643931	     -1.73638273	    -17.87359340	    -12.35595706	    -17.90395136	     21.92360245	     47.69743407	      0.00000000	      0.00000000	     21.06778272	    -19.07222478	     -4.76351345	     78.80082571	     47.55289583	      0.00000000	      0.00000000
